# AST/ASF file generated using VICON BodyLanguage
# -----------------------------------------------
:version 1.10
:name VICON
:units
  mass 1.0
  length 0.45
  angle deg
:documentation
   .ast/.asf automatically generated from VICON data using
   VICON BodyBuilder and BodyLanguage model FoxedUp or BRILLIANT.MOD
:root
   order TX TY TZ RX RY RZ
   axis XYZ
   position 0 0 0  
   orientation 0 0 0 
:bonedata
  begin
     id 1 
     name lhipjoint
     direction 0.567149 -0.783011 0.255413 
     length 2.28399 
     axis 0 0 0  XYZ
  end
  begin
     id 2 
     name lfemur
     direction 0.34202 -0.939693 0  
     length 7.34031  
     axis 0 0 20  XYZ
    dof rx ry rz
    limits (-160.0 20.0)
           (-70.0 70.0)
           (-60.0 70.0)
  end
  begin
     id 3 
     name ltibia
     direction 0.34202 -0.939693 0   
     length 6.9833   
     axis 0 0 20   XYZ
    dof rx
    limits (-10.0 170.0)
  end
  begin
     id 4 
     name lfoot
     direction 0.136498 -0.375025 0.91691   
     length 2.33665   
     axis -90 7.62852e-016 20   XYZ
    dof rx rz
    limits (-45.0 90.0)
           (-70.0 20.0)
  end
  begin
     id 5 
     name ltoes
     direction 1.5367e-011 -4.21617e-011 1   
     length 1.15039   
     axis -90 7.62852e-016 20   XYZ
    dof rx
    limits (-90.0 20.0)
  end
  begin
     id 6 
     name rhipjoint
     direction -0.602854 -0.758518 0.247423   
     length 2.35775  
     axis 0 0 0  XYZ 
  end
  begin
     id 7 
     name rfemur
     direction -0.34202 -0.939693 0   
     length 7.43932   
     axis 0 0 -20   XYZ
    dof rx ry rz
    limits (-160.0 20.0)
           (-70.0 70.0)
           (-70.0 60.0)
  end
  begin
     id 8 
     name rtibia
     direction -0.34202 -0.939693 0   
     length 7.11893   
     axis 0 0 -20   XYZ
    dof rx
    limits (-10.0 170.0)
 end
 begin
     id 9 
     name rfoot
     direction -0.131771 -0.362037 0.922803   
     length 2.53019  
     axis -90 -7.62852e-016 -20   XYZ
    dof rx rz
    limits (-45.0 90.0)
           (-20.0 70.0)
  end
  begin
     id 10 
     name rtoes
     direction -1.53733e-011 -4.21932e-011 1   
     length 1.24596   
     axis -90 -7.62852e-016 -20   XYZ
    dof rx
    limits (-90.0 20.0)
  end
  begin
     id 11 
     name lowerback
     direction 0.0235427 0.999023 -0.0374125   
     length 2.21768   
     axis 0 0 0   XYZ
    dof rx ry rz
    limits (-20.0 45.0)
           (-30.0 30.0)
           (-30.0 30.0)
  end
  begin
     id 12 
     name upperback
     direction 0.0302156 0.996818 -0.073759   
     length 2.20352   
     axis 0 0 0   XYZ
    dof rx ry rz
    limits (-20.0 45.0)
           (-30.0 30.0)
           (-30.0 30.0)
  end
  begin
     id 13 
     name thorax
     direction 0.0187169 0.998235 -0.0563532   
     length 2.22103   
     axis 0 0 0   XYZ
    dof rx ry rz
    limits (-20.0 45.0)
           (-30.0 30.0)
           (-30.0 30.0)
  end
  begin
     id 14 
     name lowerneck
     direction -0.119528 0.987423 0.103481   
     length 1.72948   
     axis 0 0 0   XYZ
    dof rx ry rz
    limits (-20.0 45.0)
           (-30.0 30.0)
           (-30.0 30.0)
  end
  begin
     id 15 
     name upperneck
     direction 0.248049 0.963095 -0.104496   
     length 1.74979   
     axis 0 0 0   XYZ
    dof rx ry rz
    limits (-20.0 45.0)
           (-30.0 30.0)
           (-30.0 30.0)
  end
  begin
     id 16
     name head
     direction 0.0903589 0.994284 -0.056876  
     length 1.78268  
     axis 0 0 0   XYZ
    dof rx ry rz
    limits (-20.0 45.0)
           (-30.0 30.0)
           (-30.0 30.0)
  end
  begin
     id 17 
     name lclavicle
     direction 0.946008 0.242039 -0.215608  
     length 3.80783  
     axis 0 0 0   XYZ
    dof ry rz
    limits (-20.0 10.0)
           (0.0 20.0)
  end
  begin
     id 18 
     name lhumerus
     direction 1 -4.48991e-011 -2.25695e-027   
     length 4.83125   
     axis 180 -30 -90   XYZ
    dof rx ry rz
    limits (-60.0 90.0)
           (-90.0 90.0)
           (-90.0 90.0)
  end
  begin
     id 19
     name lradius
     direction 0.999991 0.00366712 -0.00211721   
     length 3.00391   
     axis 180 -30 -90   XYZ
    dof rx
    limits (-10.0 170.0)
  end
  begin
     id 20
     name lwrist
     direction 0.999991 0.00393016 -0.00141978   
     length 1.50195   
     axis -1.00488e-014 90 90   XYZ
    dof ry
    limits (-180.0 0.0)
 end
  begin
     id 21 
     name lhand
     direction 1 -4.49123e-011 2.72098e-026   
     length 1.2717   
     axis -1.73687e-014 90 90   XYZ
    dof rx rz
    limits (-90.0 90.0)
           (-45.0 45.0)
  end
  begin
     id 22 
     name lfingers
     direction 1 -4.48678e-011 5.4479e-026   
     length 1.02528   
     axis -3.47372e-014 90 90   XYZ
    dof rx
    limits (0.0 90.0)
  end
  begin
     id 23
     name lthumb
     direction 0.707107 -6.34851e-011 0.707107   
     length 1.4721   
     axis -90 45 -1.62303e-014   XYZ
    dof rx rz
    limits (-45.0 45.0)
           (-45.0 45.0)
  end
  begin
     id 24 
     name rclavicle
     direction -0.981723 0.189447 -0.0181673   
     length 3.74989  
     axis 0 0 0   XYZ 
    dof ry rz
    limits (-10.0 20.0)
           (-20.0 0.0)
  end
  begin
     id 25 
     name rhumerus
     direction -1 -4.48985e-011 2.38206e-027  
     length 4.61118   
     axis 180 30 90   XYZ
    dof rx ry rz
    limits (-90.0 60.0)
           (-90.0 90.0)
           (-90.0 90.0)
  end
  begin
     id 26 
     name rradius
     direction -1 -4.48977e-011 7.41019e-027   
     length 2.91491   
     axis 180 30 90   XYZ
    dof rx
    limits (-10.0 170.0)
  end
  begin
     id 27 
     name rwrist
     direction -1 -4.48549e-011 1.3624e-026   
     length 1.45745   
     axis -1.00488e-014 -90 -90   XYZ
    dof ry
    limits (-180.0 0.0)
  end
  begin
     id 28
     name rhand
     direction -1 -4.49107e-011 2.72109e-026   
     length 1.30769   
     axis -1.73687e-014 -90 -90   XYZ
    dof rx rz
    limits (-90.0 90.0)
           (-45.0 45.0)
  end
  begin
     id 29
     name rfingers
     direction -1 -4.48919e-011 5.44468e-026   
     length 1.05429   
     axis -3.47372e-014 -90 -90   XYZ
    dof rx
    limits (0.0 90.0)
  end
  begin
     id 30
     name rthumb
     direction -0.707107 -6.35315e-011 0.707107   
     length 1.51376   
     axis -90 -45 1.62303e-014   XYZ
    dof rx rz
    limits (-45.0 45.0)
           (-45.0 45.0)
  end
:hierarchy
  begin
    root lhipjoint rhipjoint lowerback
    lhipjoint lfemur
    lfemur ltibia
    ltibia lfoot
    lfoot ltoes
    rhipjoint rfemur
    rfemur rtibia
    rtibia rfoot
    rfoot rtoes
    lowerback upperback
    upperback thorax
    thorax lowerneck lclavicle rclavicle
    lowerneck upperneck
    upperneck head
    lclavicle lhumerus
    lhumerus lradius
    lradius lwrist
    lwrist lhand lthumb
    lhand lfingers
    rclavicle rhumerus
    rhumerus rradius
    rradius rwrist
    rwrist rhand rthumb
    rhand rfingers
  end

#!OML:ASF X:\für Bonn\!DataBase\2005_08_11_Bastian_Final\c3d\Bastian.ASF
:FULLY-SPECIFIED
:DEGREES
17
root 3.47571 16.433 -18.8236 1084.76 -1.55585 -6.08218
lowerback 0.872145 -1.52451 2.64644
upperback 1.55057 -2.03688 0.893703
thorax 1.04078 -0.994995 -0.566158
lowerneck -13.9681 -2.96148 -3.43893
upperneck -8.75306 -3.21434 9.53762
head -0.173528 -1.45449 3.59538
rclavicle -1.2921e-014 1.63003e-014
rhumerus -51.2408 8.55626 -90.0091
rradius 50.5284
rwrist 0.294023
rhand -21.4577 17.58
rfingers 7.12502
rthumb 4.93239 -12.3426
lclavicle -1.2921e-014 1.63003e-014
lhumerus -31.4174 -10.9901 82.8547
lradius 54.1433
lwrist -161.281
lhand -19.4384 4.14321
lfingers 7.12502
lthumb 6.88196 34.0114
rfemur -15.5854 -4.61959 27.6077
rtibia 54.788
rfoot -30.0778 4.51021
rtoes -10.729
lfemur -2.18634 8.67037 -13.7579
ltibia 50.2865
lfoot -21.7246 -11.713
ltoes -15.9737
18
root 3.47517 16.6605 -18.427 1084.67 -1.3872 -6.02456
lowerback -1.43196 -1.72742 2.64684
upperback 1.35407 -2.38742 0.923849
thorax 2.12337 -1.15862 -0.610123
lowerneck -13.3983 -2.72047 -3.51892
upperneck -7.05304 -3.00868 9.24063
head 0.272137 -1.3309 3.50879
rclavicle -1.09332e-014 1.78906e-014
rhumerus -51.6391 10.683 -90.4369
rradius 53.2458
rwrist 1.5184
rhand -21.0618 17.2461
rfingers 7.12502
rthumb 5.31464 -12.6673
lclavicle -1.09332e-014 1.78906e-014
lhumerus -32.1277 -13.6037 83.2027
lradius 56.6868
lwrist -160.765
lhand -19.9896 3.8842
lfingers 7.12502
lthumb 6.34983 33.769
rfemur -12.4972 -5.39674 27.1644
rtibia 51.4922
rfoot -28.167 5.44815
rtoes -11.876
lfemur 0.0399834 7.06076 -13.9825
ltibia 47.355
lfoot -17.0228 -10.6928
ltoes -20.2097
19
root 3.47258 16.897 -18.0407 1084.55 -1.16831 -5.93604
lowerback -3.58855 -1.9427 2.54477
upperback 1.1505 -2.74469 0.970115
thorax 3.1237 -1.32701 -0.596205
lowerneck -12.9543 -2.4923 -3.6471
upperneck -5.27226 -2.81113 8.9596
head 0.765233 -1.20911 3.4434
rclavicle -1.75924e-014 6.36111e-015
rhumerus -52.1233 12.6678 -90.8205
rradius 56.0162
rwrist 2.63529
rhand -20.8539 16.9617
rfingers 7.12502
rthumb 5.51542 -12.9465
lclavicle -1.75924e-014 6.36111e-015
lhumerus -32.9955 -15.5532 83.5185
lradius 59.4139
lwrist -160.735
lhand -20.8348 3.6323
lfingers 7.12502
lthumb 5.53385 33.54
rfemur -9.6496 -5.90683 26.7644
rtibia 48.3593
rfoot -25.3928 6.12977
rtoes -13.4988
lfemur 1.83199 5.26613 -14.3581
ltibia 44.9256
lfoot -11.5117 -9.70046
ltoes -23.2095
20
root 3.46922 17.1639 -17.6557 1084.44 -0.870152 -5.81586
lowerback -5.52796 -2.18452 2.33474
upperback 0.91405 -3.11819 1.04722
thorax 3.97727 -1.50725 -0.501465
lowerneck -12.7241 -2.29502 -3.8261
upperneck -3.41564 -2.64225 8.66601
head 1.32387 -1.09976 3.38979
rclavicle -3.97569e-014 -1.31198e-014
rhumerus -52.6876 14.6426 -91.1513
rradius 58.7548
rwrist 3.54453
rhand -20.8531 16.6928
rfingers 7.12502
rthumb 5.5162 -13.2154
lclavicle -3.97569e-014 -1.31198e-014
lhumerus -34.1893 -16.9477 83.833
lradius 62.461
lwrist -161.033
lhand -21.9371 3.3673
lfingers 7.12502
lthumb 4.46948 33.3001
rfemur -7.11708 -5.54752 26.6079
rtibia 45.4602
rfoot -21.4829 5.88524
rtoes -15.6758
lfemur 3.17017 3.56496 -14.7363
ltibia 43.0255
lfoot -5.31487 -8.95284
ltoes -26.0294
21
root 3.46475 17.4387 -17.2804 1084.31 -0.532309 -5.66889
lowerback -7.31765 -2.42962 2.03372
upperback 0.734237 -3.47705 1.13977
thorax 4.81523 -1.68214 -0.350908
lowerneck -12.5151 -2.12049 -4.03907
upperneck -1.78218 -2.47722 8.38652
head 1.81717 -1.00088 3.35343
rclavicle 2.17545e-014 -1.43125e-014
rhumerus -53.0187 16.3234 -91.2883
rradius 61.4667
rwrist 4.21428
rhand -20.7797 16.4102
rfingers 7.12502
rthumb 5.58707 -13.4961
lclavicle 2.17545e-014 -1.43125e-014
lhumerus -35.3579 -18.2325 84.0793
lradius 65.4582
lwrist -161.247
lhand -22.9625 3.39779
lfingers 7.12502
lthumb 3.47934 33.3491
rfemur -4.93739 -4.3896 26.7218
rtibia 42.9871
rfoot -16.9419 4.8103
rtoes -18.6561
lfemur 4.09729 2.09389 -15.0445
ltibia 41.7286
lfoot 1.06191 -8.38306
ltoes -27.6589
22
root 3.4596 17.7134 -16.9025 1084.19 -0.146912 -5.42914
lowerback -9.21885 -2.67697 1.62875
upperback 0.620626 -3.81746 1.17724
thorax 5.79324 -1.84779 -0.220703
lowerneck -11.9301 -1.98383 -4.28653
upperneck -0.619939 -2.3361 8.20058
head 2.09181 -0.930912 3.35332
rclavicle 4.13969e-014 1.19271e-015
rhumerus -53.3825 17.8438 -91.4171
rradius 64.0943
rwrist 4.43873
rhand -20.8479 16.3143
rfingers 7.12502
rthumb 5.52117 -13.5938
lclavicle 4.13969e-014 1.19271e-015
lhumerus -36.4239 -19.4484 84.2046
lradius 68.2944
lwrist -161.324
lhand -23.8063 3.66701
lfingers 7.12502
lthumb 2.66438 33.6301
rfemur -3.01165 -2.77022 26.9629
rtibia 40.9471
rfoot -11.9455 2.98574
rtoes -22.2903
lfemur 4.64007 0.76853 -15.4188
ltibia 41.0899
lfoot 6.88123 -7.65758
ltoes -28.9024
23
root 3.45319 17.9977 -16.5215 1084.13 0.268235 -5.128
lowerback -11.1104 -2.9262 1.12489
upperback 0.579043 -4.12871 1.18142
thorax 6.85225 -2.00115 -0.0833748
lowerneck -11.3522 -1.86605 -4.49587
upperneck 0.209954 -2.20642 8.04116
head 2.25642 -0.872678 3.35193
rclavicle -2.01784e-014 -1.82882e-014
rhumerus -53.5722 19.1029 -91.465
rradius 66.411
rwrist 4.4142
rhand -20.9946 16.4535
rfingers 7.12502
rthumb 5.37955 -13.4582
lclavicle -2.01784e-014 -1.82882e-014
lhumerus -37.305 -20.7348 84.2116
lradius 70.9515
lwrist -161.065
lhand -24.2507 4.2003
lfingers 7.12502
lthumb 2.23519 34.1683
rfemur -1.48154 -0.788418 27.3572
rtibia 39.3722
rfoot -6.67536 0.63513
rtoes -25.3645
lfemur 4.71298 -0.366794 -15.8146
ltibia 41.26
lfoot 11.756 -6.98986
ltoes -30.5129
24
root 3.44732 18.282 -16.1739 1084.08 0.694608 -4.7994
lowerback -12.367 -3.16227 0.583167
upperback 0.493787 -4.38335 1.16514
thorax 7.5119 -2.13501 0.0878985
lowerneck -11.1118 -1.80002 -4.68498
upperneck 1.03699 -2.13959 7.90745
head 2.48743 -0.840003 3.35441
rclavicle 3.1085e-014 1.39149e-014
rhumerus -53.619 20.0196 -91.4077
rradius 68.4274
rwrist 4.21667
rhand -21.1313 16.8271
rfingers 7.12502
rthumb 5.2476 -13.0879
lclavicle 3.1085e-014 1.39149e-014
lhumerus -38.0095 -21.8995 84.1026
lradius 73.5126
lwrist -160.608
lhand -24.2807 4.79952
lfingers 7.12502
lthumb 2.20624 34.7679
rfemur -0.324034 1.41292 27.8597
rtibia 38.1672
rfoot -0.810236 -1.67388
rtoes -26.9934
lfemur 4.21212 -1.1084 -16.1201
ltibia 42.3153
lfoot 15.807 -6.51953
ltoes -31.5974
